<svg width="59" height="25" viewBox="0 0 59 25" fill="none" xmlns="http://www.w3.org/2000/svg">
<g id="Group 102">
<path id="Vector" d="M41 17.631V15.5465L31.8 8.6V4.2C31.8 3.61652 31.5577 3.05695 31.1263 2.64437C30.695 2.23178 30.11 2 29.5 2C28.89 2 28.305 2.23178 27.8737 2.64437C27.4423 3.05695 27.2 3.61652 27.2 4.2V8.7155L18 15.662V17.6299L27.2 14.5389V19.6L23.75 21.8V24L29.5 21.8L35.25 24V21.8L31.8 19.6V14.4465L41 17.631Z" fill="#FCFCFC"/>
<path id="T" d="M18 0V3.92857H11.0471V25H6.98824V3.92857H0V0H18Z" fill="#FCFCFC"/>
<path id="T_2" d="M59 0V3.92857H52.0471V25H47.9882V3.92857H41V0H59Z" fill="#FCFCFC"/>
</g>
</svg>
