<svg width="48" height="48" viewBox="0 0 48 48" fill="none" xmlns="http://www.w3.org/2000/svg">
<path fill-rule="evenodd" clip-rule="evenodd" d="M6.01953 11.6758C6.01953 10.5712 6.91496 9.67578 8.01953 9.67578H40C41.1046 9.67578 42 10.5712 42 11.6758V34.3242C42 36.5334 40.2091 38.3242 38 38.3242H10C7.79086 38.3242 6 36.5334 6 34.3242V12.3242C6 12.229 6.00666 12.1353 6.01953 12.0436V11.6758ZM10 16.1233V34.3242H38V16.124L28.243 25.881C25.8998 28.2241 22.1008 28.2241 19.7577 25.881L10 16.1233ZM13.1446 13.6111H34.856L25.4146 23.0526C24.6335 23.8336 23.3672 23.8336 22.5861 23.0526L13.1446 13.6111Z" fill="#FCFCFC" fill-opacity="0.5"/>
</svg>
