<svg width="48" height="48" viewBox="0 0 48 48" fill="none" xmlns="http://www.w3.org/2000/svg">
<path d="M44 24C44 21.3735 43.4827 18.7729 42.4776 16.3462C41.4725 13.9199 39.9993 11.7148 38.1422 9.85791C36.285 8.00049 34.0802 6.52734 31.6537 5.52246C29.2272 4.51709 26.6265 4 24 4V8C26.1011 8 28.1817 8.41406 30.1229 9.21777C32.0641 10.022 33.8279 11.2007 35.3137 12.6865C36.7994 14.1719 37.978 15.936 38.782 17.877C39.5861 19.8184 40 21.8989 40 24H44Z" fill="#FCFCFC" fill-opacity="0.5"/>
<path d="M4 20V10C4 8.89551 4.89545 8 6 8H16C17.1046 8 18 8.89551 18 10V18C18 19.1045 17.1046 20 16 20H12C12 28.8364 19.1635 36 28 36V32C28 30.8955 28.8954 30 30 30H38C39.1046 30 40 30.8955 40 32V42C40 43.1045 39.1046 44 38 44H28C14.7452 44 4 33.2549 4 20Z" fill="#FCFCFC" fill-opacity="0.5"/>
<path d="M35.0865 19.4077C35.6896 20.8638 36 22.4243 36 24H32.4C32.4 22.897 32.1827 21.8047 31.7606 20.7856C31.3384 19.7661 30.7197 18.8403 29.9397 18.0605C29.1597 17.2803 28.2337 16.6616 27.2145 16.2393C26.1954 15.8174 25.1031 15.6001 24 15.6001V12C25.5759 12 27.1363 12.3105 28.5922 12.9136C30.0481 13.5166 31.371 14.4004 32.4853 15.5146C33.5996 16.6289 34.4835 17.9517 35.0865 19.4077Z" fill="#FCFCFC" fill-opacity="0.5"/>
</svg>
