<svg width="48" height="48" viewBox="0 0 48 48" fill="none" xmlns="http://www.w3.org/2000/svg">
<path fill-rule="evenodd" clip-rule="evenodd" d="M32.5443 20.5442C32.5443 24.9625 28.9626 28.5442 24.5443 28.5442C20.126 28.5442 16.5443 24.9625 16.5443 20.5442C16.5443 16.126 20.126 12.5442 24.5443 12.5442C28.9626 12.5442 32.5443 16.126 32.5443 20.5442ZM28.5443 20.5442C28.5443 22.7534 26.7534 24.5442 24.5443 24.5442C22.3352 24.5442 20.5443 22.7534 20.5443 20.5442C20.5443 18.3351 22.3352 16.5442 24.5443 16.5442C26.7534 16.5442 28.5443 18.3351 28.5443 20.5442Z" fill="#FCFCFC" fill-opacity="0.5"/>
<path fill-rule="evenodd" clip-rule="evenodd" d="M11.5883 33.0365C4.38849 26.1817 4.10877 14.7882 10.9636 7.58833C17.8184 0.388486 29.2119 0.108766 36.4117 6.96356C43.6116 13.8184 43.8913 25.2119 37.0365 32.4117L24.6248 45.4482L11.5883 33.0365ZM34.1395 29.6536L24.486 39.7931L14.3465 30.1395C8.74661 24.808 8.52905 15.9464 13.8606 10.3465C19.1921 4.74661 28.0537 4.52905 33.6536 9.86055C39.2535 15.1921 39.471 24.0537 34.1395 29.6536Z" fill="#FCFCFC" fill-opacity="0.5"/>
</svg>
