<svg width="45" height="44" viewBox="0 0 45 44" fill="none" xmlns="http://www.w3.org/2000/svg">
<path fill-rule="evenodd" clip-rule="evenodd" d="M22.5002 38.2002C31.4472 38.2002 38.7002 30.9472 38.7002 22.0002C38.7002 13.0532 31.4472 5.8002 22.5002 5.8002C13.5532 5.8002 6.3002 13.0532 6.3002 22.0002C6.3002 30.9472 13.5532 38.2002 22.5002 38.2002ZM22.5002 41.8002C33.4354 41.8002 42.3002 32.9354 42.3002 22.0002C42.3002 11.065 33.4354 2.2002 22.5002 2.2002C11.565 2.2002 2.7002 11.065 2.7002 22.0002C2.7002 32.9354 11.565 41.8002 22.5002 41.8002Z" fill="white"/>
<path d="M29.7002 22.0002L18.9002 29.7944V14.206L29.7002 22.0002Z" fill="white"/>
</svg>
